<?xml version="1.0" standalone="no"?>
<!DOCTYPE svg PUBLIC "-//W3C//DTD SVG 20010904//EN"
 "http://www.w3.org/TR/2001/REC-SVG-20010904/DTD/svg10.dtd">
<svg version="1.0" xmlns="http://www.w3.org/2000/svg"
 width="260.000000pt" height="260.000000pt" viewBox="0 0 260.000000 260.000000"
 preserveAspectRatio="xMidYMid meet">
<metadata>
Created by potrace 1.11, written by Peter Selinger 2001-2013
</metadata>
<g transform="translate(0.000000,260.000000) scale(0.100000,-0.100000)"
fill="#000000" stroke="none">
<path d="M574 1837 c-2 -7 18 -95 46 -195 l51 -181 -20 -67 c-28 -89 -28 -219
-1 -305 56 -180 201 -322 399 -393 80 -29 95 -31 226 -30 126 0 148 2 216 26
207 73 359 222 413 407 25 84 21 220 -8 306 l-24 70 49 174 c28 96 48 180 45
188 -8 20 -32 17 -226 -32 -171 -43 -181 -44 -217 -30 -149 58 -345 58 -498 0
-40 -16 -45 -15 -223 29 -195 50 -220 53 -228 33z m223 -63 l182 -47 88 29
c77 25 103 29 208 29 105 0 131 -4 206 -28 l86 -28 182 46 c100 26 184 45 185
44 2 -2 -19 -82 -46 -177 l-50 -174 23 -51 c17 -39 23 -77 27 -157 4 -93 2
-113 -20 -176 -83 -238 -318 -394 -593 -394 -294 0 -550 186 -605 441 -16 72
-8 207 15 277 l18 53 -31 112 c-18 62 -40 142 -51 180 -11 37 -17 67 -13 67 4
0 89 -21 189 -46z"/>
<path d="M1373 1610 c-34 -20 -64 -67 -62 -97 0 -12 3 -9 8 8 20 63 61 99 113
99 36 0 83 -35 97 -71 24 -64 31 -76 24 -44 -14 72 -67 125 -123 125 -14 0
-39 -9 -57 -20z"/>
<path d="M1066 1605 c-25 -19 -56 -66 -56 -85 0 -8 9 4 21 27 12 25 33 47 52
57 18 8 25 16 17 15 -8 0 -24 -6 -34 -14z"/>
<path d="M1167 1605 c45 -19 73 -69 73 -128 0 -76 -34 -126 -100 -146 l-35
-11 35 5 c37 6 74 35 96 77 18 35 18 111 -1 148 -17 34 -61 70 -84 70 -9 -1
-1 -7 16 -15z"/>
<path d="M1002 1475 c0 -16 2 -22 5 -12 2 9 2 23 0 30 -3 6 -5 -1 -5 -18z"/>
<path d="M1112 1478 c-24 -24 -8 -78 24 -78 17 0 44 28 44 45 0 17 -27 45 -44
45 -6 0 -17 -5 -24 -12z"/>
<path d="M1380 1475 c-10 -12 -10 -21 -2 -40 14 -31 56 -34 72 -5 24 44 -38
83 -70 45z"/>
<path d="M1310 1442 c0 -7 7 -26 15 -42 39 -76 121 -93 180 -37 19 17 37 46
40 62 5 29 5 29 -8 -4 -19 -49 -61 -81 -105 -81 -48 0 -80 22 -103 74 -10 22
-19 35 -19 28z"/>
<path d="M1010 1432 c0 -36 55 -103 85 -102 5 1 -3 8 -18 16 -16 9 -37 34 -48
57 -10 23 -19 36 -19 29z"/>
<path d="M1170 1273 c-163 -86 -89 -273 108 -273 175 0 262 143 150 247 -63
59 -173 70 -258 26z m213 -15 c42 -21 77 -70 77 -108 0 -35 -34 -87 -71 -109
-99 -60 -251 -17 -280 78 -36 121 136 209 274 139z"/>
<path d="M1199 1189 c-16 -31 -3 -89 21 -89 23 0 35 46 21 83 -13 32 -26 34
-42 6z"/>
<path d="M1317 1203 c-4 -3 -7 -26 -7 -50 0 -31 5 -45 16 -50 20 -7 34 13 34
49 0 48 -21 73 -43 51z"/>
<path d="M1222 900 c-64 -60 -7 -164 79 -145 32 7 69 48 69 77 0 27 -26 74
-45 82 -33 12 -82 6 -103 -14z"/>
</g>
</svg>
